<svg width="512" height="512" viewBox="0 0 512 512" xmlns="http://www.w3.org/2000/svg">
  <circle cx="256" cy="256" r="248" fill="#FBF6EC"/>
  <circle cx="256" cy="256" r="248" fill="none" stroke="#B8862F" stroke-width="4"/>
  <circle cx="256" cy="256" r="228" fill="none" stroke="#B8862F" stroke-width="1.2" opacity="0.55"/>

  <!-- arch motif -->
  <g opacity="0.9">
    <path d="M140 340V240C140 175 190 120 256 120C322 120 372 175 372 240V340"
          fill="none" stroke="#1E3B2C" stroke-width="6" stroke-linecap="round"/>
    <path d="M172 340V250C172 205 208 168 256 168C304 168 340 205 340 250V340"
          fill="none" stroke="#6E1F2A" stroke-width="3.5" opacity="0.6" stroke-linecap="round"/>
  </g>

  <!-- string light dots along outer arch -->
  <g fill="#B8862F">
    <circle cx="150" cy="252" r="6"/>
    <circle cx="176" cy="196" r="6"/>
    <circle cx="216" cy="152" r="6"/>
    <circle cx="256" cy="138" r="6.5"/>
    <circle cx="296" cy="152" r="6"/>
    <circle cx="336" cy="196" r="6"/>
    <circle cx="362" cy="252" r="6"/>
  </g>

  <!-- VC monogram -->
  <text x="256" y="300" text-anchor="middle"
        font-family="Georgia, 'DejaVu Serif', serif" font-size="108"
        font-weight="700" fill="#6E1F2A" letter-spacing="2">VC</text>

  <!-- small wordmark ring text substitute: straight line wordmark -->
  <text x="256" y="382" text-anchor="middle"
        font-family="Georgia, 'DejaVu Serif', serif" font-size="22"
        font-weight="600" fill="#1E3B2C" letter-spacing="4">VATIKA CELEBRATIONS</text>
</svg>
